# xmcd
#
# Track frame offsets:
#	150
#	17715
#	36284
#	52800
#	70813
#	87057
#	103712
#	117535
#	131337
#	145409
#	160190
#	176182
#	194230
#	212833
#	226895
#	236436
#	253103
#	262459
#	278111
#	293067
#	303578
#	318690
#
# Disc length: 4447 seconds
#
# Revision: 0
# Processed by: cddbd v1.5.2PL0 Copyright (c) Steve Scherf et al.
# Submitted via: dBpowerAMP V4.0
#
DISCID=54115d16
DTITLE=Country Rock Comedy - My Music
DYEAR=2007
DGENRE=Bebob
TTITLE0=Wagon Wheel
TTITLE1=Kiss My Country Ass
TTITLE2=Watching Airplanes
TTITLE3=How Bout Them Cow Girls
TTITLE4=Wish I could have been there
TTITLE5=love them every one
TTITLE6=Gator
TTITLE7=Cocaine
TTITLE8=Single again
TTITLE9=till i die
TTITLE10=IN the end
TTITLE11=3 doors down
TTITLE12=sweet escape
TTITLE13=whoop ass
TTITLE14=rodney
TTITLE15=fallout
TTITLE16=fred
TTITLE17=12 inch
TTITLE18=cum stains
TTITLE19=dont bite
TTITLE20=amish
TTITLE21=fuck that
EXTD=\n
EXTT0=
EXTT1=
EXTT2=
EXTT3=
EXTT4=
EXTT5=
EXTT6=
EXTT7=
EXTT8=
EXTT9=
EXTT10=
EXTT11=
EXTT12=
EXTT13=
EXTT14=
EXTT15=
EXTT16=
EXTT17=
EXTT18=
EXTT19=
EXTT20=
EXTT21=
PLAYORDER=
